<svg aria-roledescription="er" role="graphics-document document" viewBox="0 0 420.83056640625 736" style="width: 100%;" xmlns="http://www.w3.org/2000/svg" width="100%" id="diagram-gen"><style>#diagram-gen{font-family:"trebuchet ms",verdana,arial,sans-serif;font-size:16px;fill:#ccc;}#diagram-gen .error-icon{fill:#a44141;}#diagram-gen .error-text{fill:#ddd;stroke:#ddd;}#diagram-gen .edge-thickness-normal{stroke-width:2px;}#diagram-gen .edge-thickness-thick{stroke-width:3.5px;}#diagram-gen .edge-pattern-solid{stroke-dasharray:0;}#diagram-gen .edge-pattern-dashed{stroke-dasharray:3;}#diagram-gen .edge-pattern-dotted{stroke-dasharray:2;}#diagram-gen .marker{fill:lightgrey;stroke:lightgrey;}#diagram-gen .marker.cross{stroke:lightgrey;}#diagram-gen svg{font-family:"trebuchet ms",verdana,arial,sans-serif;font-size:16px;}#diagram-gen .entityBox{fill:#1f2020;stroke:#81B1DB;}#diagram-gen .attributeBoxOdd{fill:hsl(0, 0%, 32%);stroke:#81B1DB;}#diagram-gen .attributeBoxEven{fill:hsl(0, 0%, 22%);stroke:#81B1DB;}#diagram-gen .relationshipLabelBox{fill:hsl(20, 1.5873015873%, 12.3529411765%);opacity:0.7;background-color:hsl(20, 1.5873015873%, 12.3529411765%);}#diagram-gen .relationshipLabelBox rect{opacity:0.5;}#diagram-gen .relationshipLine{stroke:lightgrey;}#diagram-gen .entityTitleText{text-anchor:middle;font-size:18px;fill:#ccc;}#diagram-gen #MD_PARENT_START{fill:#f5f5f5!important;stroke:lightgrey!important;stroke-width:1;}#diagram-gen #MD_PARENT_END{fill:#f5f5f5!important;stroke:lightgrey!important;stroke-width:1;}#diagram-gen :root{--mermaid-font-family:"trebuchet ms",verdana,arial,sans-serif;}</style><g/><defs><marker orient="auto" markerHeight="240" markerWidth="190" refY="7" refX="0" id="MD_PARENT_START"><path d="M 18,7 L9,13 L1,7 L9,1 Z"/></marker></defs><defs><marker orient="auto" markerHeight="28" markerWidth="20" refY="7" refX="19" id="MD_PARENT_END"><path d="M 18,7 L9,13 L1,7 L9,1 Z"/></marker></defs><defs><marker orient="auto" markerHeight="18" markerWidth="18" refY="9" refX="0" id="ONLY_ONE_START"><path d="M9,0 L9,18 M15,0 L15,18" fill="none" stroke="gray"/></marker></defs><defs><marker orient="auto" markerHeight="18" markerWidth="18" refY="9" refX="18" id="ONLY_ONE_END"><path d="M3,0 L3,18 M9,0 L9,18" fill="none" stroke="gray"/></marker></defs><defs><marker orient="auto" markerHeight="18" markerWidth="30" refY="9" refX="0" id="ZERO_OR_ONE_START"><circle r="6" cy="9" cx="21" fill="white" stroke="gray"/><path d="M9,0 L9,18" fill="none" stroke="gray"/></marker></defs><defs><marker orient="auto" markerHeight="18" markerWidth="30" refY="9" refX="30" id="ZERO_OR_ONE_END"><circle r="6" cy="9" cx="9" fill="white" stroke="gray"/><path d="M21,0 L21,18" fill="none" stroke="gray"/></marker></defs><defs><marker orient="auto" markerHeight="36" markerWidth="45" refY="18" refX="18" id="ONE_OR_MORE_START"><path d="M0,18 Q 18,0 36,18 Q 18,36 0,18 M42,9 L42,27" fill="none" stroke="gray"/></marker></defs><defs><marker orient="auto" markerHeight="36" markerWidth="45" refY="18" refX="27" id="ONE_OR_MORE_END"><path d="M3,9 L3,27 M9,18 Q27,0 45,18 Q27,36 9,18" fill="none" stroke="gray"/></marker></defs><defs><marker orient="auto" markerHeight="36" markerWidth="57" refY="18" refX="18" id="ZERO_OR_MORE_START"><circle r="6" cy="18" cx="48" fill="white" stroke="gray"/><path d="M0,18 Q18,0 36,18 Q18,36 0,18" fill="none" stroke="gray"/></marker></defs><defs><marker orient="auto" markerHeight="36" markerWidth="57" refY="18" refX="39" id="ZERO_OR_MORE_END"><circle r="6" cy="18" cx="9" fill="white" stroke="gray"/><path d="M21,18 Q39,0 57,18 Q39,36 21,18" fill="none" stroke="gray"/></marker></defs><path style="stroke: gray; fill: none;" marker-start="url(#ONLY_ONE_START)" marker-end="url(#ZERO_OR_MORE_END)" d="M79.407,95L79.407,103.333C79.407,111.667,79.407,128.333,88.952,146.473C98.497,164.613,117.587,184.226,127.132,194.032L136.677,203.839" class="er relationshipLine"/><path style="stroke: gray; fill: none;" marker-start="url(#ONLY_ONE_START)" marker-end="url(#ZERO_OR_MORE_END)" d="M319.822,95L319.822,103.333C319.822,111.667,319.822,128.333,310.277,146.473C300.732,164.613,281.642,184.226,272.097,194.032L262.552,203.839" class="er relationshipLine"/><path style="stroke: gray; fill: none;" marker-start="url(#ONE_OR_MORE_START)" marker-end="url(#ZERO_OR_MORE_END)" d="M199.615,342L199.615,350.333C199.615,358.667,199.615,375.333,199.615,392C199.615,408.667,199.615,425.333,199.615,433.667L199.615,442" class="er relationshipLine"/><path style="stroke: gray; fill: none;" marker-start="url(#ONLY_ONE_START)" marker-end="url(#ZERO_OR_MORE_END)" d="M199.615,541L199.615,549.333C199.615,557.667,199.615,574.333,199.615,591C199.615,607.667,199.615,624.333,199.615,632.667L199.615,641" class="er relationshipLine"/><g transform="translate(20,20 )" id="entity-Patient-fd7c0e36-73bd-52fe-9d20-17fb0d0ffb71"><rect height="75" width="118.813720703125" y="0" x="0" class="er entityBox"/><text style="dominant-baseline: middle; text-anchor: middle; font-size: 12px;" transform="translate(59.4068603515625,13.5)" y="0" x="0" id="text-entity-Patient-fd7c0e36-73bd-52fe-9d20-17fb0d0ffb71" class="er entityLabel">Patient</text><rect height="24" width="66.391845703125" y="27" x="0" class="er attributeBoxOdd"/><text style="dominant-baseline: middle; font-size: 10.2px;" transform="translate(5,39)" y="0" x="0" id="text-entity-Patient-fd7c0e36-73bd-52fe-9d20-17fb0d0ffb71-attr-1-type" class="er entityLabel">int</text><rect height="24" width="52.421875" y="27" x="66.391845703125" class="er attributeBoxOdd"/><text style="dominant-baseline: middle; font-size: 10.2px;" transform="translate(71.391845703125,39)" y="0" x="0" id="text-entity-Patient-fd7c0e36-73bd-52fe-9d20-17fb0d0ffb71-attr-1-name" class="er entityLabel">PatientID</text><rect height="24" width="66.391845703125" y="51" x="0" class="er attributeBoxEven"/><text style="dominant-baseline: middle; font-size: 10.2px;" transform="translate(5,63)" y="0" x="0" id="text-entity-Patient-fd7c0e36-73bd-52fe-9d20-17fb0d0ffb71-attr-2-type" class="er entityLabel">varchar(255)</text><rect height="24" width="52.421875" y="51" x="66.391845703125" class="er attributeBoxEven"/><text style="dominant-baseline: middle; font-size: 10.2px;" transform="translate(71.391845703125,63)" y="0" x="0" id="text-entity-Patient-fd7c0e36-73bd-52fe-9d20-17fb0d0ffb71-attr-2-name" class="er entityLabel">Nombre</text></g><g transform="translate(139.9420166015625,641 )" id="entity-Activity-11fee013-deaf-5d98-8fab-b92585bcaa6a"><rect height="75" width="119.344970703125" y="0" x="0" class="er entityBox"/><text style="dominant-baseline: middle; text-anchor: middle; font-size: 12px;" transform="translate(59.6724853515625,13.5)" y="0" x="0" id="text-entity-Activity-11fee013-deaf-5d98-8fab-b92585bcaa6a" class="er entityLabel">Activity</text><rect height="24" width="66.391845703125" y="27" x="0" class="er attributeBoxOdd"/><text style="dominant-baseline: middle; font-size: 10.2px;" transform="translate(5,39)" y="0" x="0" id="text-entity-Activity-11fee013-deaf-5d98-8fab-b92585bcaa6a-attr-1-type" class="er entityLabel">int</text><rect height="24" width="52.953125" y="27" x="66.391845703125" class="er attributeBoxOdd"/><text style="dominant-baseline: middle; font-size: 10.2px;" transform="translate(71.391845703125,39)" y="0" x="0" id="text-entity-Activity-11fee013-deaf-5d98-8fab-b92585bcaa6a-attr-1-name" class="er entityLabel">ActivityID</text><rect height="24" width="66.391845703125" y="51" x="0" class="er attributeBoxEven"/><text style="dominant-baseline: middle; font-size: 10.2px;" transform="translate(5,63)" y="0" x="0" id="text-entity-Activity-11fee013-deaf-5d98-8fab-b92585bcaa6a-attr-2-type" class="er entityLabel">varchar(255)</text><rect height="24" width="52.953125" y="51" x="66.391845703125" class="er attributeBoxEven"/><text style="dominant-baseline: middle; font-size: 10.2px;" transform="translate(71.391845703125,63)" y="0" x="0" id="text-entity-Activity-11fee013-deaf-5d98-8fab-b92585bcaa6a-attr-2-name" class="er entityLabel">Nombre</text></g><g transform="translate(238.813720703125,20 )" id="entity-PaymentMethod-358a6d3f-8edc-5cbc-b80c-ff1d97e615a9"><rect height="75" width="162.016845703125" y="0" x="0" class="er entityBox"/><text style="dominant-baseline: middle; text-anchor: middle; font-size: 12px;" transform="translate(81.0084228515625,13.5)" y="0" x="0" id="text-entity-PaymentMethod-358a6d3f-8edc-5cbc-b80c-ff1d97e615a9" class="er entityLabel">PaymentMethod</text><rect height="24" width="66.391845703125" y="27" x="0" class="er attributeBoxOdd"/><text style="dominant-baseline: middle; font-size: 10.2px;" transform="translate(5,39)" y="0" x="0" id="text-entity-PaymentMethod-358a6d3f-8edc-5cbc-b80c-ff1d97e615a9-attr-1-type" class="er entityLabel">int</text><rect height="24" width="95.625" y="27" x="66.391845703125" class="er attributeBoxOdd"/><text style="dominant-baseline: middle; font-size: 10.2px;" transform="translate(71.391845703125,39)" y="0" x="0" id="text-entity-PaymentMethod-358a6d3f-8edc-5cbc-b80c-ff1d97e615a9-attr-1-name" class="er entityLabel">PaymentMethodID</text><rect height="24" width="66.391845703125" y="51" x="0" class="er attributeBoxEven"/><text style="dominant-baseline: middle; font-size: 10.2px;" transform="translate(5,63)" y="0" x="0" id="text-entity-PaymentMethod-358a6d3f-8edc-5cbc-b80c-ff1d97e615a9-attr-2-type" class="er entityLabel">varchar(255)</text><rect height="24" width="95.625" y="51" x="66.391845703125" class="er attributeBoxEven"/><text style="dominant-baseline: middle; font-size: 10.2px;" transform="translate(71.391845703125,63)" y="0" x="0" id="text-entity-PaymentMethod-358a6d3f-8edc-5cbc-b80c-ff1d97e615a9-attr-2-name" class="er entityLabel">Nombre</text></g><g transform="translate(136.677001953125,195 )" id="entity-Appointment-3da851f3-d560-5982-a39e-9e2a8ae336e4"><rect height="147" width="125.875" y="0" x="0" class="er entityBox"/><text style="dominant-baseline: middle; text-anchor: middle; font-size: 12px;" transform="translate(62.9375,13.5)" y="0" x="0" id="text-entity-Appointment-3da851f3-d560-5982-a39e-9e2a8ae336e4" class="er entityLabel">Appointment</text><rect height="24" width="30.25" y="27" x="0" class="er attributeBoxOdd"/><text style="dominant-baseline: middle; font-size: 10.2px;" transform="translate(5,39)" y="0" x="0" id="text-entity-Appointment-3da851f3-d560-5982-a39e-9e2a8ae336e4-attr-1-type" class="er entityLabel">int</text><rect height="24" width="95.625" y="27" x="30.25" class="er attributeBoxOdd"/><text style="dominant-baseline: middle; font-size: 10.2px;" transform="translate(35.25,39)" y="0" x="0" id="text-entity-Appointment-3da851f3-d560-5982-a39e-9e2a8ae336e4-attr-1-name" class="er entityLabel">AppointmentID</text><rect height="24" width="30.25" y="51" x="0" class="er attributeBoxEven"/><text style="dominant-baseline: middle; font-size: 10.2px;" transform="translate(5,63)" y="0" x="0" id="text-entity-Appointment-3da851f3-d560-5982-a39e-9e2a8ae336e4-attr-2-type" class="er entityLabel">date</text><rect height="24" width="95.625" y="51" x="30.25" class="er attributeBoxEven"/><text style="dominant-baseline: middle; font-size: 10.2px;" transform="translate(35.25,63)" y="0" x="0" id="text-entity-Appointment-3da851f3-d560-5982-a39e-9e2a8ae336e4-attr-2-name" class="er entityLabel">Fecha</text><rect height="24" width="30.25" y="75" x="0" class="er attributeBoxOdd"/><text style="dominant-baseline: middle; font-size: 10.2px;" transform="translate(5,87)" y="0" x="0" id="text-entity-Appointment-3da851f3-d560-5982-a39e-9e2a8ae336e4-attr-3-type" class="er entityLabel">int</text><rect height="24" width="95.625" y="75" x="30.25" class="er attributeBoxOdd"/><text style="dominant-baseline: middle; font-size: 10.2px;" transform="translate(35.25,87)" y="0" x="0" id="text-entity-Appointment-3da851f3-d560-5982-a39e-9e2a8ae336e4-attr-3-name" class="er entityLabel">PacienteID</text><rect height="24" width="30.25" y="99" x="0" class="er attributeBoxEven"/><text style="dominant-baseline: middle; font-size: 10.2px;" transform="translate(5,111)" y="0" x="0" id="text-entity-Appointment-3da851f3-d560-5982-a39e-9e2a8ae336e4-attr-4-type" class="er entityLabel">int</text><rect height="24" width="95.625" y="99" x="30.25" class="er attributeBoxEven"/><text style="dominant-baseline: middle; font-size: 10.2px;" transform="translate(35.25,111)" y="0" x="0" id="text-entity-Appointment-3da851f3-d560-5982-a39e-9e2a8ae336e4-attr-4-name" class="er entityLabel">Valor</text><rect height="24" width="30.25" y="123" x="0" class="er attributeBoxOdd"/><text style="dominant-baseline: middle; font-size: 10.2px;" transform="translate(5,135)" y="0" x="0" id="text-entity-Appointment-3da851f3-d560-5982-a39e-9e2a8ae336e4-attr-5-type" class="er entityLabel">int</text><rect height="24" width="95.625" y="123" x="30.25" class="er attributeBoxOdd"/><text style="dominant-baseline: middle; font-size: 10.2px;" transform="translate(35.25,135)" y="0" x="0" id="text-entity-Appointment-3da851f3-d560-5982-a39e-9e2a8ae336e4-attr-5-name" class="er entityLabel">PaymentMethodID</text></g><g transform="translate(119.434814453125,442 )" id="entity-ActivitiesOfAppointment-9c02ae28-38a6-5e97-aba5-e2654ada3cf8"><rect height="99" width="160.359375" y="0" x="0" class="er entityBox"/><text style="dominant-baseline: middle; text-anchor: middle; font-size: 12px;" transform="translate(80.1796875,13.5)" y="0" x="0" id="text-entity-ActivitiesOfAppointment-9c02ae28-38a6-5e97-aba5-e2654ada3cf8" class="er entityLabel">ActivitiesOfAppointment</text><rect height="24" width="25.930892944335938" y="27" x="0" class="er attributeBoxOdd"/><text style="dominant-baseline: middle; font-size: 10.2px;" transform="translate(5,39)" y="0" x="0" id="text-entity-ActivitiesOfAppointment-9c02ae28-38a6-5e97-aba5-e2654ada3cf8-attr-1-type" class="er entityLabel">int</text><rect height="24" width="134.42848205566406" y="27" x="25.930892944335938" class="er attributeBoxOdd"/><text style="dominant-baseline: middle; font-size: 10.2px;" transform="translate(30.930892944335938,39)" y="0" x="0" id="text-entity-ActivitiesOfAppointment-9c02ae28-38a6-5e97-aba5-e2654ada3cf8-attr-1-name" class="er entityLabel">ActivitiesOfAppointmentID</text><rect height="24" width="25.930892944335938" y="51" x="0" class="er attributeBoxEven"/><text style="dominant-baseline: middle; font-size: 10.2px;" transform="translate(5,63)" y="0" x="0" id="text-entity-ActivitiesOfAppointment-9c02ae28-38a6-5e97-aba5-e2654ada3cf8-attr-2-type" class="er entityLabel">int</text><rect height="24" width="134.42848205566406" y="51" x="25.930892944335938" class="er attributeBoxEven"/><text style="dominant-baseline: middle; font-size: 10.2px;" transform="translate(30.930892944335938,63)" y="0" x="0" id="text-entity-ActivitiesOfAppointment-9c02ae28-38a6-5e97-aba5-e2654ada3cf8-attr-2-name" class="er entityLabel">AppointmentID</text><rect height="24" width="25.930892944335938" y="75" x="0" class="er attributeBoxOdd"/><text style="dominant-baseline: middle; font-size: 10.2px;" transform="translate(5,87)" y="0" x="0" id="text-entity-ActivitiesOfAppointment-9c02ae28-38a6-5e97-aba5-e2654ada3cf8-attr-3-type" class="er entityLabel">int</text><rect height="24" width="134.42848205566406" y="75" x="25.930892944335938" class="er attributeBoxOdd"/><text style="dominant-baseline: middle; font-size: 10.2px;" transform="translate(30.930892944335938,87)" y="0" x="0" id="text-entity-ActivitiesOfAppointment-9c02ae28-38a6-5e97-aba5-e2654ada3cf8-attr-3-name" class="er entityLabel">ActivityID</text></g><rect height="17" width="18.8125" y="147.34095764160156" x="85.17720031738281" class="er relationshipLabelBox"/><text style="text-anchor: middle; dominant-baseline: middle; font-size: 12px;" y="155.84095764160156" x="94.58345031738281" id="rel1" class="er relationshipLabel">has</text><rect height="17" width="38.640625" y="147.34095764160156" x="285.32525634765625" class="er relationshipLabelBox"/><text style="text-anchor: middle; dominant-baseline: middle; font-size: 12px;" y="155.84095764160156" x="304.64556884765625" id="rel2" class="er relationshipLabel">used in</text><rect height="17" width="44.109375" y="383.5" x="177.56031799316406" class="er relationshipLabelBox"/><text style="text-anchor: middle; dominant-baseline: middle; font-size: 12px;" y="392" x="199.61500549316406" id="rel3" class="er relationshipLabel">includes</text><rect height="17" width="45.203125" y="582.5" x="177.01344299316406" class="er relationshipLabelBox"/><text style="text-anchor: middle; dominant-baseline: middle; font-size: 12px;" y="591" x="199.61500549316406" id="rel4" class="er relationshipLabel">contains</text></svg>